<?xml version="1.0" standalone="no"?>
<!DOCTYPE svg PUBLIC "-//W3C//DTD SVG 20010904//EN"
 "http://www.w3.org/TR/2001/REC-SVG-20010904/DTD/svg10.dtd">
<svg version="1.0" xmlns="http://www.w3.org/2000/svg"
 width="784.000000pt" height="784.000000pt" viewBox="0 0 784.000000 784.000000"
 preserveAspectRatio="xMidYMid meet">
<metadata>
Created by potrace 1.11, written by Peter Selinger 2001-2013
</metadata>
<g transform="translate(0.000000,784.000000) scale(0.100000,-0.100000)"
fill="#000000" stroke="none">
<path d="M2689 6900 c-43 -23 -56 -42 -199 -290 -140 -242 -148 -257 -172
-300 -11 -19 -28 -48 -39 -65 -10 -16 -22 -37 -26 -45 -4 -8 -28 -51 -54 -95
-26 -44 -56 -96 -66 -115 -35 -61 -173 -300 -246 -425 -39 -66 -79 -136 -89
-155 -11 -19 -30 -53 -43 -75 -14 -22 -28 -47 -32 -55 -4 -8 -23 -42 -43 -75
-20 -33 -39 -64 -41 -70 -9 -22 -71 -125 -78 -129 -6 -4 -36 18 -91 67 -8 7
-35 28 -60 47 -25 19 -50 40 -56 45 -15 14 -62 53 -204 166 -173 138 -191 153
-204 164 -6 6 -58 48 -116 95 -58 46 -112 89 -120 97 -14 11 -144 117 -180
146 -8 7 -73 59 -144 116 -150 121 -184 141 -241 134 -89 -10 -152 -85 -143
-170 8 -67 22 -85 127 -168 28 -22 51 -43 51 -47 0 -5 6 -8 14 -8 8 0 16 -3
18 -8 1 -4 39 -37 83 -72 44 -36 89 -72 100 -81 11 -9 45 -37 75 -61 142 -113
275 -222 280 -227 3 -3 25 -22 50 -41 66 -51 79 -62 119 -96 20 -17 106 -86
191 -154 85 -68 160 -129 166 -135 6 -5 54 -44 106 -85 91 -72 107 -91 172
-205 15 -27 43 -76 62 -108 19 -32 34 -62 34 -68 0 -5 3 -9 8 -9 4 0 13 -15
21 -32 8 -18 17 -35 21 -38 4 -3 20 -30 37 -60 54 -98 156 -276 204 -355 10
-16 24 -41 32 -55 29 -54 290 -507 305 -530 9 -14 15 -28 14 -32 -1 -5 3 -8 8
-8 6 0 10 -4 10 -10 0 -5 17 -38 38 -72 21 -35 41 -70 45 -78 4 -8 18 -33 32
-55 14 -22 28 -47 32 -55 4 -8 29 -52 55 -97 50 -84 55 -102 37 -120 -6 -6
-32 -48 -58 -94 -26 -46 -74 -129 -106 -184 -32 -55 -69 -120 -83 -145 -13
-25 -31 -52 -38 -61 -8 -8 -14 -19 -14 -22 0 -11 -194 -342 -202 -345 -5 -2
-8 -8 -8 -13 0 -6 -22 -48 -50 -95 -27 -47 -50 -89 -50 -94 0 -6 -4 -10 -8
-10 -4 0 -13 -12 -20 -27 -7 -16 -18 -37 -25 -48 -11 -18 -68 -116 -92 -157
-5 -10 -43 -75 -84 -145 -98 -169 -101 -175 -103 -217 -4 -121 132 -204 237
-144 32 19 55 49 117 153 42 72 77 134 78 139 0 5 6 17 14 25 7 9 25 36 38 61
14 25 83 144 153 265 71 121 139 240 153 265 14 25 32 56 42 70 9 14 59 99
110 190 51 91 99 172 105 180 7 8 25 40 41 70 16 30 32 57 37 58 4 2 7 7 7 12
0 5 19 41 43 82 l44 73 1080 3 1081 2 91 -156 c50 -85 91 -159 91 -165 0 -5 5
-9 10 -9 6 0 10 -4 10 -9 0 -5 26 -54 58 -108 32 -54 61 -105 65 -113 4 -8 16
-28 26 -45 10 -16 57 -97 105 -180 47 -82 90 -157 95 -165 12 -19 104 -177
143 -245 16 -27 37 -63 47 -80 10 -16 29 -50 43 -75 14 -25 46 -80 72 -123 25
-43 46 -83 46 -88 0 -5 5 -9 10 -9 6 0 10 -6 10 -14 0 -23 67 -74 105 -82 57
-10 105 4 144 44 39 40 43 48 49 107 4 47 0 56 -177 358 -66 114 -121 212
-121 217 0 6 -4 10 -10 10 -5 0 -10 4 -10 9 0 4 -67 124 -150 266 -82 141
-150 259 -150 260 0 2 -22 40 -50 84 -27 44 -50 83 -50 86 0 3 -16 31 -36 62
-19 31 -40 65 -45 77 -6 12 -21 39 -34 61 -14 22 -30 51 -37 65 -7 14 -15 27
-18 30 -3 3 -16 26 -29 51 l-24 45 38 70 c22 38 42 71 46 74 3 3 9 15 13 27 4
13 13 29 19 36 7 7 20 28 31 47 15 29 66 117 259 452 94 162 174 301 195 338
14 24 49 84 78 133 30 49 54 92 54 94 0 3 15 31 34 62 19 31 43 72 54 91 73
130 260 449 272 465 8 11 71 65 140 119 69 55 127 102 130 105 10 12 109 91
113 91 2 0 19 13 38 30 30 25 158 131 269 220 30 24 137 111 190 153 8 7 62
50 120 97 57 47 111 90 120 97 8 7 56 45 105 85 50 40 95 76 100 80 6 5 30 26
55 48 25 22 48 40 51 40 17 0 42 58 45 104 11 121 -115 208 -223 154 -25 -13
-144 -102 -189 -143 -6 -5 -28 -23 -49 -40 -21 -16 -91 -73 -155 -125 -64 -52
-136 -111 -160 -130 -24 -19 -49 -41 -57 -48 -7 -7 -13 -11 -13 -8 0 3 -10 -5
-23 -17 -13 -12 -63 -53 -111 -92 -48 -38 -93 -75 -99 -80 -7 -6 -57 -46 -112
-90 -55 -44 -111 -90 -125 -102 -14 -11 -56 -46 -95 -77 -38 -31 -85 -68 -104
-83 -44 -36 -47 -37 -54 -16 -4 10 -15 32 -24 48 -68 113 -93 157 -93 166 0 5
-4 9 -10 9 -5 0 -10 4 -10 10 0 5 -14 33 -31 62 -33 55 -54 91 -90 156 -12 20
-43 74 -70 120 -27 45 -49 84 -49 87 0 2 -14 24 -30 48 -17 25 -30 47 -30 50
0 3 -29 56 -65 117 -36 61 -76 130 -89 153 -13 23 -40 70 -60 104 -20 34 -36
66 -36 72 0 6 -4 11 -8 11 -4 0 -20 24 -35 53 -15 28 -33 61 -40 72 -20 32
-52 87 -79 135 -14 25 -50 88 -80 140 -31 52 -64 111 -74 130 -10 19 -21 37
-24 40 -3 3 -12 18 -20 34 -8 16 -30 40 -49 55 l-34 26 -1206 2 c-1166 2
-1207 2 -1242 -17z m2312 -328 c9 -15 53 -92 98 -172 46 -80 92 -157 102 -172
10 -15 19 -34 19 -42 0 -8 4 -16 8 -18 7 -3 121 -194 187 -313 44 -79 328
-571 366 -633 22 -35 39 -69 39 -77 0 -7 4 -15 8 -17 9 -3 192 -315 192 -326
0 -3 7 -13 16 -23 14 -16 12 -23 -22 -86 -21 -37 -40 -70 -43 -73 -3 -3 -19
-30 -35 -60 -16 -30 -35 -62 -42 -71 -8 -8 -14 -18 -14 -21 0 -3 -39 -73 -86
-155 -48 -81 -96 -166 -109 -188 -12 -22 -45 -80 -73 -129 -29 -49 -52 -93
-52 -97 0 -5 -4 -9 -9 -9 -5 0 -11 -8 -14 -17 -4 -10 -17 -36 -30 -58 -25 -44
-83 -141 -97 -165 -49 -81 -110 -193 -110 -200 0 -6 -4 -10 -10 -10 -5 0 -10
-4 -10 -8 0 -5 -63 -118 -140 -252 -77 -133 -140 -246 -140 -250 0 -4 -7 -11
-16 -14 -9 -3 -492 -6 -1075 -6 -935 0 -1059 2 -1059 15 0 8 -4 15 -10 15 -5
0 -10 5 -10 11 0 6 -13 30 -30 54 -16 24 -30 46 -30 49 0 4 -33 64 -74 134
-41 70 -84 145 -97 167 -12 22 -35 63 -51 90 -16 28 -33 57 -38 65 -19 30 -98
166 -122 210 -14 25 -42 74 -63 110 -21 36 -49 85 -63 110 -13 25 -30 52 -38
60 -7 8 -12 17 -11 20 0 3 -6 16 -15 30 -39 62 -88 152 -88 161 0 5 -4 9 -10
9 -5 0 -10 4 -10 10 0 5 -18 39 -40 75 -22 36 -40 67 -40 69 0 2 -26 48 -58
103 -32 54 -62 105 -65 113 -4 8 -27 49 -51 90 l-44 74 28 51 c15 27 36 66 46
85 11 19 22 37 25 40 3 3 24 39 47 80 24 41 58 102 78 135 19 33 38 68 41 78
3 9 9 17 14 17 5 0 9 4 9 9 0 4 54 102 120 216 66 114 120 209 120 211 0 3 8
17 19 32 10 15 87 146 171 292 84 146 196 340 249 431 l96 167 1065 0 1065 1
16 -27z"/>
<path d="M3180 6527 c-38 -17 -64 -51 -143 -187 -39 -69 -76 -133 -82 -142
-83 -142 -115 -199 -115 -207 0 -5 -4 -11 -8 -13 -6 -2 -103 -165 -189 -318
-11 -19 -40 -69 -65 -110 -24 -41 -47 -82 -51 -90 -4 -8 -13 -24 -20 -35 -22
-37 -181 -310 -194 -335 -8 -14 -23 -38 -33 -55 -20 -32 -43 -72 -81 -142 -12
-24 -26 -43 -31 -43 -4 0 -8 -9 -8 -19 0 -11 -3 -21 -7 -23 -5 -1 -18 -22 -30
-45 -57 -110 12 -235 132 -239 88 -2 120 27 210 191 24 43 168 291 183 315 9
14 15 28 14 33 -1 4 3 7 8 7 6 0 10 4 10 9 0 10 103 189 120 208 6 7 9 14 8
15 -1 2 5 14 14 28 19 31 117 200 148 255 12 22 37 65 55 95 36 59 239 409
262 450 8 14 27 48 43 75 64 108 77 140 75 181 -1 23 -6 47 -11 55 -5 8 -9 18
-9 23 0 5 -17 23 -38 40 -31 24 -49 31 -90 32 -29 1 -63 -3 -77 -9z"/>
<path d="M4510 6513 c-64 -32 -106 -105 -98 -171 2 -15 29 -71 60 -125 32 -54
58 -100 58 -102 0 -1 25 -44 55 -95 31 -51 72 -122 92 -159 20 -36 41 -73 48
-81 7 -8 15 -22 19 -30 3 -8 20 -37 36 -65 17 -27 36 -62 42 -77 7 -16 16 -28
20 -28 4 0 8 -4 8 -10 0 -5 20 -43 45 -83 25 -41 45 -78 45 -81 0 -4 5 -12 11
-19 6 -7 107 -178 224 -382 269 -465 260 -450 302 -476 98 -61 228 9 237 127
4 56 7 50 -159 334 -57 96 -111 191 -122 210 -11 19 -34 58 -50 86 -17 27 -41
70 -55 95 -31 55 -86 149 -99 169 -5 8 -39 67 -75 130 -37 63 -75 129 -84 145
-10 17 -43 75 -75 130 -32 55 -96 164 -141 242 -46 78 -84 146 -84 152 0 6 -4
11 -9 11 -5 0 -13 10 -16 21 -14 42 -69 109 -104 125 -43 21 -98 24 -131 7z"/>
<path d="M2873 3473 c-49 -26 -80 -60 -88 -101 -2 -9 -4 -21 -6 -27 -8 -26 13
-93 38 -121 54 -60 4 -57 1117 -58 l1023 -1 35 27 c19 15 44 46 55 69 35 75 1
169 -76 205 -33 16 -113 18 -1053 20 -869 1 -1021 -1 -1045 -13z"/>
</g>
</svg>
